<?xml version="1.0" encoding="UTF-8"?>
<svg id="Layer_2" data-name="Layer 2" xmlns="http://www.w3.org/2000/svg" xmlns:xlink="http://www.w3.org/1999/xlink" viewBox="0 0 269.76 269.76">
  <defs>
    <style>
      .cls-1 {
        fill: none;
      }

      .cls-2 {
        clip-path: url(#clippath);
      }

      .cls-3 {
        fill: #00bdb4;
      }

      .cls-4 {
        fill: #00ab9c;
      }

      .cls-5 {
        fill: #ffaa4a;
      }

      .cls-6 {
        fill: #62c66c;
      }
    </style>
    <clipPath id="clippath">
      <rect class="cls-1" width="269.76" height="269.76"/>
    </clipPath>
  </defs>
  <g id="Islands">
    <g>
      <rect class="cls-4" width="269.76" height="269.76"/>
      <g class="cls-2">
        <circle class="cls-3" cx="134.88" cy="311.22" r="158.86"/>
      </g>
      <g>
        <path class="cls-5" d="m70.46,173.19l21.4-7.33s3.86-67.86-41.06-93.3c0,0,25.45,23.33,19.66,100.63Z"/>
        <path class="cls-6" d="m51.25,71.96l-13.81,49.45s-15.33-26.17,3.76-43.23L6.8,98.78s4.63-27.11,31.37-28.12L0,60.98s22.34-16.84,42.22,2.89l-24.72-30.87s28.99,1.01,32.67,27.33c0,0,1.95-27.04,33.11-27.04l-23.24,27.4s16.95-16.19,40.01-1.08l-34.48,8.89s23.93-3.98,33.61,22.92l-47.93-19.45Z"/>
      </g>
      <g>
        <path class="cls-5" d="m140.57,269.76h-27.7s-3.9-84.76,55.46-118.39c0,0-32.52,36.47-27.76,118.39Z"/>
        <path class="cls-6" d="m167.72,150.57l18.25,65.36s20.26-34.59-4.97-57.14l45.48,27.23s-6.12-35.83-41.47-37.17l50.45-12.8s-29.52-22.26-55.8,3.82l32.68-40.8s-38.32,1.34-43.19,36.12c0,0-2.58-35.74-43.76-35.74l30.72,36.21s-22.41-21.4-52.89-1.43l45.58,11.75s-31.63-5.26-44.43,30.29l63.35-25.7Z"/>
      </g>
    </g>
  </g>
</svg>