<?xml version="1.0" encoding="UTF-8"?>
<svg id="Layer_2" data-name="Layer 2" xmlns="http://www.w3.org/2000/svg" viewBox="0 0 269.76 269.76">
  <defs>
    <style>
      .cls-1 {
        fill: #0056ab;
      }

      .cls-2 {
        fill: #0074c1;
      }
    </style>
  </defs>
  <g id="Marine_Life" data-name="Marine Life">
    <g>
      <rect class="cls-1" width="269.76" height="269.76"/>
      <g>
        <polygon class="cls-2" points="50.88 55.02 50.88 110.92 106.88 55.02 50.88 55.02"/>
        <polygon class="cls-2" points="106.88 55.02 106.88 110.92 162.88 55.02 106.88 55.02"/>
        <polygon class="cls-2" points="162.88 55.02 162.88 110.92 218.88 55.02 162.88 55.02"/>
        <polygon class="cls-2" points="106.88 110.92 106.88 166.83 162.88 110.92 106.88 110.92"/>
        <polygon class="cls-2" points="162.88 110.92 162.88 166.83 218.88 110.92 162.88 110.92"/>
        <polygon class="cls-2" points="106.88 166.83 106.88 222.73 162.88 166.83 106.88 166.83"/>
        <polygon class="cls-2" points="162.88 166.83 162.88 222.73 218.88 166.83 162.88 166.83"/>
        <polygon class="cls-2" points="50.88 110.92 50.88 166.83 106.88 110.92 50.88 110.92"/>
        <polygon class="cls-2" points="50.88 166.83 50.88 222.73 106.88 166.83 50.88 166.83"/>
      </g>
    </g>
  </g>
</svg>