<?xml version="1.0" encoding="UTF-8"?>
<svg id="Layer_2" data-name="Layer 2" xmlns="http://www.w3.org/2000/svg" xmlns:xlink="http://www.w3.org/1999/xlink" viewBox="0 0 269.76 269.76">
  <defs>
    <style>
      .cls-1 {
        fill: none;
      }

      .cls-2 {
        clip-path: url(#clippath);
      }

      .cls-3 {
        fill: #0056ab;
      }

      .cls-4 {
        fill: #00a5d3;
      }

      .cls-5 {
        fill: #0074c1;
      }

      .cls-6 {
        fill: #2d3197;
      }
    </style>
    <clipPath id="clippath">
      <rect class="cls-1" width="269.76" height="269.76"/>
    </clipPath>
  </defs>
  <g id="Waves">
    <g class="cls-2">
      <rect class="cls-6" width="269.76" height="269.76"/>
      <g>
        <path class="cls-3" d="m247.01,114s-8.48-18.89-32.29-18.41-54.26,21.59-59.47,49.73c-5.2,28.14-1.54,58.02,30.46,78.84,32,20.82,74.95,20.43,74.95,20.43h31.46v28.08h-158.65s-57.06-44.28-54.94-98.83,14.65-80.39,53.4-94.46,96.82-9.78,110.55,20.14c0,0,3.61,8.77,4.53,14.46Z"/>
        <path class="cls-5" d="m212.5,272.68s-93.49-19.02-101.2-93.82c-7.71-74.8,40.87-100.24,67.47-101.78s51.86,7.52,63.04,24.87c0,0-.67-8.43-16-25.04-15.33-16.6-84.05-49.37-123.37-25.66C63.1,74.96-8.99,117.56,3.73,185.42s32,87.27,32,87.27h176.77Z"/>
        <path class="cls-4" d="m110.91,272.68H-119.83S-46.59,122.38,28.4,57.03C103.39-8.32,221.95,25.03,237.37,92.12c0,0-20.05-28.92-73.06-28.72s-101.59,31.04-105.54,94.46,23.52,94.82,52.14,114.83Z"/>
      </g>
    </g>
  </g>
</svg>