<?xml version="1.0" encoding="UTF-8"?>
<svg id="Layer_2" data-name="Layer 2" xmlns="http://www.w3.org/2000/svg" viewBox="0 0 269.76 269.76">
  <defs>
    <style>
      .cls-1 {
        fill: #00a847;
      }

      .cls-2 {
        fill: #ff5833;
      }

      .cls-3 {
        fill: #fff;
      }

      .cls-4 {
        fill: #fff700;
      }

      .cls-5 {
        fill: #ff0;
      }

      .cls-6 {
        fill: #ff8b00;
      }

      .cls-7 {
        fill: #76ff00;
      }
    </style>
  </defs>
  <g id="Pahiyas">
    <g>
      <rect class="cls-1" width="269.76" height="269.76"/>
      <g>
        <path class="cls-3" d="m138.19,19.59s-5.99,4.33-5.99,15.27,5.99,17.17,5.99,17.17c0,0,5.99-4.33,5.99-15.27s-5.99-17.17-5.99-17.17Z"/>
        <path class="cls-3" d="m178.44,29.59s-6.87,2.7-9.59,13.3,1.54,18.12,1.54,18.12c0,0,6.87-2.7,9.59-13.3s-1.54-18.12-1.54-18.12Z"/>
        <path class="cls-3" d="m218.38,49.79s-7.19-1.68-15.45,5.5-9.03,15.79-9.03,15.79c0,0,7.19,1.68,15.45-5.5,8.25-7.18,9.03-15.79,9.03-15.79Z"/>
        <path class="cls-3" d="m252.14,133.27s-4.18-6.09-15.11-6.36-17.32,5.57-17.32,5.57c0,0,4.18,6.09,15.11,6.36s17.32-5.57,17.32-5.57Z"/>
        <path class="cls-3" d="m240.76,88.44s-6.67-3.18-16.27,2.07c-9.6,5.25-12.2,13.49-12.2,13.49,0,0,6.67,3.18,16.27-2.07,9.6-5.25,12.2-13.49,12.2-13.49Z"/>
        <path class="cls-3" d="m239.04,170.07s-2.55-6.93-13.08-9.89c-10.53-2.95-18.15,1.13-18.15,1.13,0,0,2.55,6.93,13.08,9.89,10.53,2.95,18.15-1.13,18.15-1.13Z"/>
        <path class="cls-3" d="m219.19,204.54s.14-7.39-8.61-13.95c-8.75-6.57-17.33-5.52-17.33-5.52,0,0-.14,7.39,8.61,13.95s17.33,5.52,17.33,5.52Z"/>
        <path class="cls-3" d="m183.17,234.77s2.92-6.79-2.7-16.17c-5.62-9.39-13.96-11.66-13.96-11.66,0,0-2.92,6.79,2.7,16.17s13.96,11.66,13.96,11.66Z"/>
        <path class="cls-3" d="m138.07,247.55s6.02-4.28,6.1-15.22c.08-10.94-5.86-17.22-5.86-17.22,0,0-6.02,4.28-6.1,15.22s5.86,17.22,5.86,17.22Z"/>
        <path class="cls-3" d="m99.7,238.1s6.91-2.62,9.76-13.18c2.85-10.56-1.3-18.14-1.3-18.14,0,0-6.91,2.62-9.76,13.18-2.85,10.56,1.31,18.14,1.31,18.14Z"/>
        <path class="cls-3" d="m61.81,217s7.38.17,14-8.54c6.61-8.72,5.61-17.3,5.61-17.3,0,0-7.38-.17-14,8.54-6.61,8.72-5.61,17.3-5.61,17.3Z"/>
        <path class="cls-3" d="m37.2,174.1s6.65,3.21,16.28-1.99,12.26-13.43,12.26-13.43c0,0-6.65-3.21-16.28,1.99-9.62,5.2-12.26,13.43-12.26,13.43Z"/>
        <path class="cls-3" d="m24.36,132.36s4.39,5.94,15.33,5.83c10.94-.11,17.11-6.16,17.11-6.16,0,0-4.39-5.94-15.33-5.83-10.94.11-17.11,6.16-17.11,6.16Z"/>
        <path class="cls-3" d="m31.54,90.81s2.51,6.95,13.02,9.96c10.52,3.01,18.16-1.02,18.16-1.02,0,0-2.51-6.95-13.02-9.96-10.52-3.01-18.16,1.02-18.16,1.02Z"/>
        <path class="cls-3" d="m55.01,53.78s-.39,7.38,8.13,14.24,17.13,6.11,17.13,6.11c0,0,.39-7.38-8.13-14.24s-17.13-6.11-17.13-6.11Z"/>
        <path class="cls-3" d="m91.27,31.77s-3.07,6.72,2.34,16.23c5.4,9.51,13.69,11.97,13.69,11.97,0,0,3.07-6.72-2.33-16.23-5.4-9.51-13.69-11.97-13.69-11.97Z"/>
        <path class="cls-6" d="m124.42,89.97h28.48s1.59-18.22-14.71-33.61c0,0-13.41,10.48-13.77,33.61Z"/>
        <path class="cls-5" d="m122.73,66.28l-15.07,3.46s1.37,9.83,11.87,15.99c0,0,5.82-7.18,3.2-19.46Z"/>
        <path class="cls-5" d="m172.66,76.53l-13.1-8.21s-5.98,7.92-2.92,19.7c0,0,9.19-.96,16.02-11.5Z"/>
        <path class="cls-5" d="m103.6,192.32l13.87,5.77s4.46-8.55-.35-19.35c0,0-8.65,2.39-13.51,13.58Z"/>
        <path class="cls-5" d="m72.6,146.63l3.13,14.69s9.57-1.18,15.72-11.28c0,0-6.88-5.76-18.85-3.4Z"/>
        <path class="cls-5" d="m194.06,166.67l8.17-12.6s-7.6-5.93-19.09-3.13c0,0,.79,8.94,10.92,15.74Z"/>
        <path class="cls-5" d="m157.02,200.04l14.17-5.01s-2.41-9.34-13.23-14.13c0,0-4.83,7.57-.94,19.14Z"/>
        <path class="cls-5" d="m79.18,95.45l-8.03,13.21s8,5.88,19.74,2.66c0,0-1.08-9.18-11.71-15.87Z"/>
        <path class="cls-5" d="m203.09,114.87l-3.66-15.02s-9.81,1.5-15.84,12.08c0,0,7.25,5.73,19.5,2.94Z"/>
        <path class="cls-7" d="m157.14,92.59l19.1,21.13s14.58-11.04,15.07-33.45c0,0-16.77-2.92-34.17,12.33Z"/>
        <path class="cls-6" d="m180.71,117.49l-.6,28.48s18.18,1.98,33.92-14c0,0-10.2-13.63-33.32-14.48Z"/>
        <path class="cls-7" d="m174.95,150.55l-19.52,20.74s12.17,13.64,34.56,12.33c0,0,1.56-16.95-15.04-33.07Z"/>
        <path class="cls-7" d="m118.54,172.16l-20.03-20.94s-14.51,11.64-14.37,34.45c0,0,17.14,2.49,34.4-13.51Z"/>
        <circle class="cls-4" cx="136.63" cy="132.05" r="31.52"/>
        <path class="cls-6" d="m96.09,145.67l.6-28.48s-18.18-1.98-33.92,14c0,0,10.2,13.63,33.32,14.48Z"/>
        <path class="cls-7" d="m97.3,110.99l20.72-19.55s-11.34-14.34-33.77-14.35c0,0-2.56,16.83,13.05,33.9Z"/>
        <path class="cls-6" d="m150.97,173.93h-28.48s-1.59,18.22,14.72,33.62c0,0,13.41-10.48,13.76-33.62Z"/>
        <path class="cls-2" d="m136.63,100.53c-17.41,0-31.52,14.11-31.52,31.52h31.52v-31.52Z"/>
        <path class="cls-2" d="m136.63,163.57c17.41,0,31.52-14.11,31.52-31.52h-31.52v31.52Z"/>
      </g>
    </g>
  </g>
</svg>