<?xml version="1.0" encoding="UTF-8"?>
<svg xmlns="http://www.w3.org/2000/svg" xmlns:xlink="http://www.w3.org/1999/xlink" viewBox="0 0 269.76 269.76">
  <defs>
    <style>
      .cls-1 {
        fill: none;
      }

      .cls-2 {
        clip-path: url(#clippath);
      }

      .cls-3 {
        fill: #0087a9;
      }

      .cls-4 {
        fill: #7bc70f;
        mix-blend-mode: overlay;
      }

      .cls-5 {
        isolation: isolate;
      }
    </style>
    <clipPath id="clippath">
      <rect class="cls-1" x="0" y="0" width="269.76" height="269.76" transform="translate(269.76 269.76) rotate(-180)"/>
    </clipPath>
  </defs>
  <g class="cls-5">
    <g id="Layer_2" data-name="Layer 2">
      <g id="Pawikan">
        <g>
          <rect class="cls-3" x="0" y="0" width="269.76" height="269.76" transform="translate(269.76 269.76) rotate(-180)"/>
          <g class="cls-2">
            <g>
              <circle class="cls-4" cx="52.46" cy="58.36" r="94.01"/>
              <circle class="cls-4" cx="137.13" cy="133.12" r="39.39"/>
              <path class="cls-4" d="m106.52,50.75s20.53-26.12,57.11-27.57,55.66,13.3,59.42,17.06c0,0-18.51,27.18-54.51,30.65s-62.02-20.14-62.02-20.14Z"/>
              <path class="cls-4" d="m59.82,110.65s24.64,22.28,23.56,58.87c-1.08,36.59-17.11,54.61-21.12,58.1,0,0-25.84-20.34-26.82-56.49-.98-36.15,24.38-60.49,24.38-60.49Z"/>
            </g>
          </g>
        </g>
      </g>
    </g>
  </g>
</svg>