<?xml version="1.0" encoding="UTF-8"?>
<svg id="Layer_2" data-name="Layer 2" xmlns="http://www.w3.org/2000/svg" xmlns:xlink="http://www.w3.org/1999/xlink" viewBox="0 0 269.76 269.76">
  <defs>
    <style>
      .cls-1 {
        fill: none;
      }

      .cls-2 {
        clip-path: url(#clippath);
      }

      .cls-3 {
        fill: #fff68a;
      }

      .cls-4 {
        fill: #fff446;
      }

      .cls-5 {
        fill: #ff0006;
      }

      .cls-6 {
        fill: #ff6143;
      }

      .cls-7 {
        fill: #ac0000;
      }
    </style>
    <clipPath id="clippath">
      <rect class="cls-1" x="0" y="0" width="269.76" height="269.76" transform="translate(269.76 269.76) rotate(-180)"/>
    </clipPath>
  </defs>
  <g id="Weaves">
    <g>
      <rect class="cls-7" x="0" y="0" width="269.76" height="269.76" transform="translate(269.76 269.76) rotate(-180)"/>
      <g class="cls-2">
        <g>
          <g>
            <g>
              <path class="cls-4" d="m34.64,18.05s-16.58,39.71-16.58,49.83,12.67,31.08,16.58,34.99c3.9-3.9,16.58-24.87,16.58-34.99s-16.58-49.83-16.58-49.83Z"/>
              <path class="cls-6" d="m34.64,52.6s-5.86,13.23-5.86,16.6,4.48,10.36,5.86,11.66c1.38-1.3,5.86-8.29,5.86-11.66s-5.86-16.6-5.86-16.6Z"/>
            </g>
            <g>
              <path class="cls-4" d="m102.69,18.05s-16.58,39.71-16.58,49.83,12.67,31.08,16.58,34.99c3.9-3.9,16.58-24.87,16.58-34.99s-16.58-49.83-16.58-49.83Z"/>
              <path class="cls-6" d="m102.69,52.6s-5.86,13.23-5.86,16.6,4.48,10.36,5.86,11.66c1.38-1.3,5.86-8.29,5.86-11.66s-5.86-16.6-5.86-16.6Z"/>
            </g>
            <g>
              <path class="cls-4" d="m170.54,18.05s-16.58,39.71-16.58,49.83,12.67,31.08,16.58,34.99c3.9-3.9,16.58-24.87,16.58-34.99s-16.58-49.83-16.58-49.83Z"/>
              <path class="cls-6" d="m170.54,52.6s-5.86,13.23-5.86,16.6,4.48,10.36,5.86,11.66c1.38-1.3,5.86-8.29,5.86-11.66s-5.86-16.6-5.86-16.6Z"/>
            </g>
            <g>
              <path class="cls-4" d="m237.43,18.05s-16.58,39.71-16.58,49.83,12.67,31.08,16.58,34.99c3.9-3.9,16.58-24.87,16.58-34.99s-16.58-49.83-16.58-49.83Z"/>
              <path class="cls-6" d="m237.43,52.6s-5.86,13.23-5.86,16.6,4.48,10.36,5.86,11.66c1.38-1.3,5.86-8.29,5.86-11.66s-5.86-16.6-5.86-16.6Z"/>
            </g>
          </g>
          <g>
            <g>
              <path class="cls-4" d="m34.64,152.66s-16.58,39.71-16.58,49.83,12.67,31.08,16.58,34.99c3.9-3.9,16.58-24.87,16.58-34.99s-16.58-49.83-16.58-49.83Z"/>
              <path class="cls-6" d="m34.64,187.21s-5.86,13.23-5.86,16.6,4.48,10.36,5.86,11.66c1.38-1.3,5.86-8.29,5.86-11.66s-5.86-16.6-5.86-16.6Z"/>
            </g>
            <g>
              <path class="cls-4" d="m102.69,152.66s-16.58,39.71-16.58,49.83,12.67,31.08,16.58,34.99c3.9-3.9,16.58-24.87,16.58-34.99s-16.58-49.83-16.58-49.83Z"/>
              <path class="cls-6" d="m102.69,187.21s-5.86,13.23-5.86,16.6,4.48,10.36,5.86,11.66c1.38-1.3,5.86-8.29,5.86-11.66s-5.86-16.6-5.86-16.6Z"/>
            </g>
            <g>
              <path class="cls-4" d="m170.54,152.66s-16.58,39.71-16.58,49.83,12.67,31.08,16.58,34.99c3.9-3.9,16.58-24.87,16.58-34.99s-16.58-49.83-16.58-49.83Z"/>
              <path class="cls-6" d="m170.54,187.21s-5.86,13.23-5.86,16.6,4.48,10.36,5.86,11.66c1.38-1.3,5.86-8.29,5.86-11.66s-5.86-16.6-5.86-16.6Z"/>
            </g>
            <g>
              <path class="cls-4" d="m237.43,152.66s-16.58,39.71-16.58,49.83,12.67,31.08,16.58,34.99c3.9-3.9,16.58-24.87,16.58-34.99s-16.58-49.83-16.58-49.83Z"/>
              <path class="cls-6" d="m237.43,187.21s-5.86,13.23-5.86,16.6,4.48,10.36,5.86,11.66c1.38-1.3,5.86-8.29,5.86-11.66s-5.86-16.6-5.86-16.6Z"/>
            </g>
          </g>
          <g>
            <path class="cls-5" d="m67.8,55.3s-28.07,67.24-28.07,84.37,21.46,52.63,28.07,59.24c6.61-6.61,28.07-42.11,28.07-59.24s-28.07-84.37-28.07-84.37Z"/>
            <path class="cls-6" d="m67.8,92.56s-16.58,39.71-16.58,49.83,12.67,31.08,16.58,34.99c3.9-3.9,16.58-24.87,16.58-34.99s-16.58-49.83-16.58-49.83Z"/>
            <path class="cls-3" d="m67.8,127.1s-5.86,13.23-5.86,16.6,4.48,10.36,5.86,11.66c1.38-1.3,5.86-8.29,5.86-11.66s-5.86-16.6-5.86-16.6Z"/>
          </g>
          <g>
            <path class="cls-5" d="m134.88,55.3s-28.07,67.24-28.07,84.37,21.46,52.63,28.07,59.24c6.61-6.61,28.07-42.11,28.07-59.24s-28.07-84.37-28.07-84.37Z"/>
            <path class="cls-6" d="m134.88,92.56s-16.58,39.71-16.58,49.83,12.67,31.08,16.58,34.99c3.9-3.9,16.58-24.87,16.58-34.99s-16.58-49.83-16.58-49.83Z"/>
            <path class="cls-3" d="m134.88,127.1s-5.86,13.23-5.86,16.6,4.48,10.36,5.86,11.66c1.38-1.3,5.86-8.29,5.86-11.66s-5.86-16.6-5.86-16.6Z"/>
          </g>
          <g>
            <path class="cls-5" d="m201.96,55.3s-28.07,67.24-28.07,84.37,21.46,52.63,28.07,59.24c6.61-6.61,28.07-42.11,28.07-59.24s-28.07-84.37-28.07-84.37Z"/>
            <path class="cls-6" d="m201.96,92.56s-16.58,39.71-16.58,49.83,12.67,31.08,16.58,34.99c3.9-3.9,16.58-24.87,16.58-34.99s-16.58-49.83-16.58-49.83Z"/>
            <path class="cls-3" d="m201.96,127.1s-5.86,13.23-5.86,16.6,4.48,10.36,5.86,11.66c1.38-1.3,5.86-8.29,5.86-11.66s-5.86-16.6-5.86-16.6Z"/>
          </g>
          <g>
            <path class="cls-5" d="m269.05,55.3s-28.07,67.24-28.07,84.37,21.46,52.63,28.07,59.24c6.61-6.61,28.07-42.11,28.07-59.24s-28.07-84.37-28.07-84.37Z"/>
            <path class="cls-6" d="m269.05,92.56s-16.58,39.71-16.58,49.83,12.67,31.08,16.58,34.99c3.9-3.9,16.58-24.87,16.58-34.99s-16.58-49.83-16.58-49.83Z"/>
            <path class="cls-3" d="m269.05,127.1s-5.86,13.23-5.86,16.6,4.48,10.36,5.86,11.66c1.38-1.3,5.86-8.29,5.86-11.66s-5.86-16.6-5.86-16.6Z"/>
          </g>
          <g>
            <path class="cls-5" d="m.71,55.3s-28.07,67.24-28.07,84.37S-5.9,192.3.71,198.91c6.61-6.61,28.07-42.11,28.07-59.24S.71,55.3.71,55.3Z"/>
            <path class="cls-6" d="m.71,92.56s-16.58,39.71-16.58,49.83S-3.19,173.47.71,177.38c3.9-3.9,16.58-24.87,16.58-34.99S.71,92.56.71,92.56Z"/>
            <path class="cls-3" d="m.71,127.1s-5.86,13.23-5.86,16.6,4.48,10.36,5.86,11.66c1.38-1.3,5.86-8.29,5.86-11.66S.71,127.1.71,127.1Z"/>
          </g>
          <g>
            <path class="cls-5" d="m67.8-91.02S39.73-23.78,39.73-6.64s21.46,52.63,28.07,59.24c6.61-6.61,28.07-42.11,28.07-59.24s-28.07-84.37-28.07-84.37Z"/>
            <path class="cls-6" d="m67.8-53.76S51.22-14.04,51.22-3.92s12.67,31.08,16.58,34.99c3.9-3.9,16.58-24.87,16.58-34.99s-16.58-49.83-16.58-49.83Z"/>
            <path class="cls-3" d="m67.8-19.21s-5.86,13.23-5.86,16.6,4.48,10.36,5.86,11.66c1.38-1.3,5.86-8.29,5.86-11.66s-5.86-16.6-5.86-16.6Z"/>
          </g>
          <g>
            <path class="cls-5" d="m134.88-91.02S106.81-23.78,106.81-6.64s21.46,52.63,28.07,59.24c6.61-6.61,28.07-42.11,28.07-59.24s-28.07-84.37-28.07-84.37Z"/>
            <path class="cls-6" d="m134.88-53.76S118.3-14.04,118.3-3.92s12.67,31.08,16.58,34.99c3.9-3.9,16.58-24.87,16.58-34.99s-16.58-49.83-16.58-49.83Z"/>
            <path class="cls-3" d="m134.88-19.21s-5.86,13.23-5.86,16.6,4.48,10.36,5.86,11.66c1.38-1.3,5.86-8.29,5.86-11.66s-5.86-16.6-5.86-16.6Z"/>
          </g>
          <g>
            <path class="cls-5" d="m201.96-91.02s-28.07,67.24-28.07,84.37,21.46,52.63,28.07,59.24c6.61-6.61,28.07-42.11,28.07-59.24s-28.07-84.37-28.07-84.37Z"/>
            <path class="cls-6" d="m201.96-53.76s-16.58,39.71-16.58,49.83,12.67,31.08,16.58,34.99c3.9-3.9,16.58-24.87,16.58-34.99s-16.58-49.83-16.58-49.83Z"/>
            <path class="cls-3" d="m201.96-19.21s-5.86,13.23-5.86,16.6,4.48,10.36,5.86,11.66c1.38-1.3,5.86-8.29,5.86-11.66s-5.86-16.6-5.86-16.6Z"/>
          </g>
          <g>
            <path class="cls-5" d="m269.05-91.02s-28.07,67.24-28.07,84.37,21.46,52.63,28.07,59.24c6.61-6.61,28.07-42.11,28.07-59.24s-28.07-84.37-28.07-84.37Z"/>
            <path class="cls-6" d="m269.05-53.76s-16.58,39.71-16.58,49.83,12.67,31.08,16.58,34.99c3.9-3.9,16.58-24.87,16.58-34.99s-16.58-49.83-16.58-49.83Z"/>
            <path class="cls-3" d="m269.05-19.21s-5.86,13.23-5.86,16.6,4.48,10.36,5.86,11.66c1.38-1.3,5.86-8.29,5.86-11.66s-5.86-16.6-5.86-16.6Z"/>
          </g>
          <g>
            <path class="cls-5" d="m.71-91.02S-27.36-23.78-27.36-6.64-5.9,45.99.71,52.6C7.32,45.99,28.78,10.49,28.78-6.64S.71-91.02.71-91.02Z"/>
            <path class="cls-6" d="m.71-53.76S-15.87-14.04-15.87-3.92-3.19,27.16.71,31.06C4.61,27.16,17.29,6.2,17.29-3.92S.71-53.76.71-53.76Z"/>
            <path class="cls-3" d="m.71-19.21S-5.15-5.98-5.15-2.61-.67,7.75.71,9.05C2.09,7.75,6.57.76,6.57-2.61S.71-19.21.71-19.21Z"/>
          </g>
          <g>
            <path class="cls-5" d="m67.8,201.61s-28.07,67.24-28.07,84.37,21.46,52.63,28.07,59.24c6.61-6.61,28.07-42.11,28.07-59.24s-28.07-84.37-28.07-84.37Z"/>
            <path class="cls-6" d="m67.8,238.87s-16.58,39.71-16.58,49.83,12.67,31.08,16.58,34.99c3.9-3.9,16.58-24.87,16.58-34.99s-16.58-49.83-16.58-49.83Z"/>
          </g>
          <g>
            <path class="cls-5" d="m134.88,201.61s-28.07,67.24-28.07,84.37,21.46,52.63,28.07,59.24c6.61-6.61,28.07-42.11,28.07-59.24s-28.07-84.37-28.07-84.37Z"/>
            <path class="cls-6" d="m134.88,238.87s-16.58,39.71-16.58,49.83,12.67,31.08,16.58,34.99c3.9-3.9,16.58-24.87,16.58-34.99s-16.58-49.83-16.58-49.83Z"/>
          </g>
          <g>
            <path class="cls-5" d="m201.96,201.61s-28.07,67.24-28.07,84.37,21.46,52.63,28.07,59.24c6.61-6.61,28.07-42.11,28.07-59.24s-28.07-84.37-28.07-84.37Z"/>
            <path class="cls-6" d="m201.96,238.87s-16.58,39.71-16.58,49.83,12.67,31.08,16.58,34.99c3.9-3.9,16.58-24.87,16.58-34.99s-16.58-49.83-16.58-49.83Z"/>
          </g>
          <g>
            <path class="cls-5" d="m269.05,201.61s-28.07,67.24-28.07,84.37,21.46,52.63,28.07,59.24c6.61-6.61,28.07-42.11,28.07-59.24s-28.07-84.37-28.07-84.37Z"/>
            <path class="cls-6" d="m269.05,238.87s-16.58,39.71-16.58,49.83,12.67,31.08,16.58,34.99c3.9-3.9,16.58-24.87,16.58-34.99s-16.58-49.83-16.58-49.83Z"/>
          </g>
          <g>
            <path class="cls-5" d="m.71,201.61s-28.07,67.24-28.07,84.37S-5.9,338.61.71,345.22c6.61-6.61,28.07-42.11,28.07-59.24S.71,201.61.71,201.61Z"/>
            <path class="cls-6" d="m.71,238.87s-16.58,39.71-16.58,49.83,12.67,31.08,16.58,34.99c3.9-3.9,16.58-24.87,16.58-34.99S.71,238.87.71,238.87Z"/>
          </g>
        </g>
      </g>
    </g>
  </g>
</svg>