<?xml version="1.0" encoding="UTF-8"?>
<svg id="Layer_2" data-name="Layer 2" xmlns="http://www.w3.org/2000/svg" viewBox="0 0 269.76 269.76">
  <defs>
    <style>
      .cls-1 {
        fill: #00ba72;
      }

      .cls-2 {
        fill: #00b0f4;
      }

      .cls-3 {
        fill: #00a846;
      }

      .cls-4 {
        fill: #00742e;
      }

      .cls-5 {
        fill: #0074c1;
      }

      .cls-6 {
        fill: #0078a6;
      }

      .cls-7 {
        fill: #ff5800;
      }

      .cls-8 {
        fill: #fff;
      }

      .cls-9 {
        fill: #ffaa4a;
      }

      .cls-10 {
        fill: #ffc200;
      }

      .cls-11 {
        fill: #ff0006;
      }

      .cls-12 {
        fill: #ff8d00;
      }

      .cls-13 {
        fill: #ff8647;
      }

      .cls-14 {
        fill: #7bc70f;
      }
    </style>
  </defs>
  <g id="Masskara">
    <g>
      <rect class="cls-6" x="0" y="0" width="269.76" height="269.76" transform="translate(269.76 269.76) rotate(-180)"/>
      <g>
        <path class="cls-1" d="m133.13,15.45s-6.51,10.77-5.42,25.81,6.94,21.18,6.94,21.18c0,0,4.41-8.53,4.48-23.49s-6-23.49-6-23.49Z"/>
        <g>
          <path class="cls-1" d="m104.37,19.39s-3.5,12.09,1.43,26.33c4.93,14.25,12.18,18.67,12.18,18.67,0,0,2.06-9.38-1.74-23.85-3.8-14.47-11.87-21.15-11.87-21.15Z"/>
          <path class="cls-1" d="m77.09,28.7s-.51,12.57,7.68,25.23c8.2,12.65,16.29,15.22,16.29,15.22,0,0-.25-9.6-7.39-22.75-7.15-13.15-16.58-17.7-16.58-17.7Z"/>
          <path class="cls-1" d="m52.33,44.48s2.83,12.26,14.08,22.3c11.25,10.04,19.73,10.37,19.73,10.37,0,0-2.78-9.19-13.14-19.98-10.37-10.79-20.67-12.68-20.67-12.68Z"/>
          <path class="cls-1" d="m29.98,67.51s6.18,10.96,19.8,17.42c13.62,6.45,21.85,4.38,21.85,4.38,0,0-5.26-8.04-18.25-15.46-12.99-7.43-23.41-6.34-23.41-6.34Z"/>
          <path class="cls-1" d="m13.54,97.49s8.85,8.94,23.7,11.57c14.84,2.62,22.23-1.55,22.23-1.55,0,0-7.19-6.36-21.69-10.09-14.49-3.73-24.25.07-24.25.07Z"/>
          <path class="cls-1" d="m7.04,125.54s10.38,7.12,25.45,6.9c15.07-.22,21.55-5.71,21.55-5.71,0,0-8.26-4.89-23.2-5.83-14.93-.94-23.8,4.63-23.8,4.63Z"/>
        </g>
        <g>
          <path class="cls-1" d="m162.88,19.39s3.5,12.09-1.43,26.33c-4.93,14.25-12.18,18.67-12.18,18.67,0,0-2.06-9.38,1.74-23.85s11.87-21.15,11.87-21.15Z"/>
          <path class="cls-1" d="m190.16,28.7s.51,12.57-7.68,25.23c-8.2,12.65-16.29,15.22-16.29,15.22,0,0,.25-9.6,7.39-22.75s16.58-17.7,16.58-17.7Z"/>
          <path class="cls-1" d="m214.93,44.48s-2.83,12.26-14.08,22.3c-11.25,10.04-19.73,10.37-19.73,10.37,0,0,2.78-9.19,13.14-19.98,10.37-10.79,20.67-12.68,20.67-12.68Z"/>
          <path class="cls-1" d="m237.28,67.51s-6.18,10.96-19.8,17.42c-13.62,6.45-21.85,4.38-21.85,4.38,0,0,5.26-8.04,18.25-15.46,12.99-7.43,23.41-6.34,23.41-6.34Z"/>
          <path class="cls-1" d="m253.72,97.49s-8.85,8.94-23.7,11.57c-14.84,2.62-22.23-1.55-22.23-1.55,0,0,7.19-6.36,21.69-10.09,14.49-3.73,24.25.07,24.25.07Z"/>
          <path class="cls-1" d="m260.22,125.54s-10.38,7.12-25.45,6.9c-15.07-.22-21.55-5.71-21.55-5.71,0,0,8.26-4.89,23.2-5.83,14.93-.94,23.8,4.63,23.8,4.63Z"/>
        </g>
        <path class="cls-7" d="m132.78,132.24s-25.54,36.58-66.6,56.04c0,0,45.59,9.31,66.6,62.8,21.01-53.49,66.6-62.8,66.6-62.8-41.06-19.46-66.6-56.04-66.6-56.04Z"/>
        <g>
          <path class="cls-3" d="m214.93,139.63c0-42.96-36.79-77.79-82.16-77.79s-82.16,34.83-82.16,77.79h164.33Z"/>
          <path class="cls-4" d="m203.23,139.63c0-36.85-31.55-66.71-70.47-66.71s-70.47,29.87-70.47,66.71h140.93Z"/>
        </g>
        <g>
          <g>
            <path class="cls-13" d="m128.96,106.3c.66-.85,4.88-6.88-.33-16.15-5.61-9.99-15.38-12.17-15.44-12.19h0s-3.37,9.47,2.14,19.55c5.1,9.33,12.44,8.95,13.51,8.84l.03.05s.02-.02.05-.06c.04,0,.06,0,.06,0l-.02-.04Z"/>
            <path class="cls-13" d="m135.21,107.31c1.07.08,8.43.23,13.24-9.25,5.18-10.21,1.56-19.55,1.54-19.61h0s-9.75,2.47-15.06,12.65c-4.92,9.42-.52,15.32.17,16.15l-.03.05s.03,0,.07,0c.02.03.04.05.04.05l.02-.04Z"/>
          </g>
          <path class="cls-14" d="m126.17,117.48c.49-1.27,3.42-10.14-6.28-19.5-10.45-10.09-23.13-9.19-23.2-9.18h0s-.64,12.74,9.73,22.97c9.59,9.47,18.38,6.34,19.64,5.82l.05.05s.01-.03.04-.09c.04-.02.07-.03.07-.03l-.04-.04Z"/>
          <path class="cls-14" d="m139.61,117.12c1.27.49,10.14,3.42,19.5-6.28,10.09-10.45,9.19-23.13,9.18-23.2h0s-12.74-.64-22.98,9.72c-9.47,9.59-6.34,18.38-5.82,19.64l-.05.05s.03.01.09.04c.02.04.03.07.03.07l.04-.04Z"/>
          <path class="cls-7" d="m133.82,132.96c1.26.44,10,2.99,18.83-6.72,9.51-10.47,8.23-22.75,8.22-22.83h0s-12.45-.22-22.12,10.18c-8.94,9.62-5.6,18.06-5.05,19.26l-.05.05s.03.01.09.03c.02.04.03.07.03.07l.04-.04Z"/>
          <path class="cls-14" d="m163.25,137.04c.5,1.24,4.3,9.51,17.43,9.8,14.15.31,22.57-8.71,22.62-8.77h0s-8.01-9.54-22.19-10.02c-13.12-.44-17.3,7.61-17.86,8.82h-.07s.01.03.03.09c-.02.04-.03.07-.03.07h.06Z"/>
          <path class="cls-14" d="m105.01,136.2c-.58-1.2-4.97-9.18-18.08-8.53-14.13.7-21.89,10.3-21.94,10.36h0s8.67,8.94,22.85,8.41c13.12-.5,16.72-8.83,17.18-10.07h.07s-.01-.04-.04-.09c.02-.04.02-.07.02-.07h-.06Z"/>
          <path class="cls-13" d="m106.95,146.62c-1.01-.86-8.23-6.41-19.99-.56-12.66,6.31-15.91,18.23-15.93,18.29h0s11.53,4.71,24.3-1.47c11.82-5.72,11.76-14.8,11.69-16.12l.06-.03s-.03-.02-.07-.06c0-.05,0-.08,0-.08l-.05.03Z"/>
          <path class="cls-13" d="m162.23,150.89c.02,1.33.63,10.42,12.79,15.37,13.11,5.33,24.2-.1,24.26-.13h0s-4.09-11.76-17.17-17.26c-12.11-5.08-18.88.95-19.83,1.88l-.07-.03s0,.04,0,.09c-.03.03-.05.05-.05.05l.05.02Z"/>
          <path class="cls-9" d="m150.76,130.34c1.31.87,10.57,6.38,23.55-2.14,13.99-9.19,16.14-23.63,16.15-23.72h0s-14.2-3.92-28.33,5.13c-13.08,8.38-11.75,19.03-11.47,20.57l-.07.05s.03.02.09.06c.01.05.02.09.02.09l.06-.04Z"/>
          <path class="cls-9" d="m117.08,129.25c.19-1.56.98-12.31-12.45-20.1-14.47-8.4-28.36-3.86-28.44-3.84h0s2.85,14.45,17.27,23.04c13.34,7.95,22.27,1.99,23.53,1.06l.07.04s0-.04.02-.11c.04-.03.07-.06.07-.06l-.06-.03Z"/>
          <path class="cls-7" d="m129.6,133.34c.58-1.2,4.14-9.58-4.49-19.48-9.29-10.67-21.64-10.82-21.71-10.82h0s-1.66,12.34,7.54,23.14c8.51,10,17.28,7.66,18.55,7.26l.05.05s.02-.03.04-.08c.04-.01.07-.03.07-.03l-.04-.04Z"/>
        </g>
        <g>
          <path class="cls-10" d="m132.78,62.68s-14.17,48.72-11.86,59.13c2.31,10.41,11.86,10.99,11.86,10.99,0,0,9.54-.58,11.86-10.99,2.31-10.41-11.86-59.13-11.86-59.13Z"/>
          <circle class="cls-2" cx="133.76" cy="139.49" r="23.27"/>
          <path class="cls-8" d="m159.96,132.8s-11.57,2.71-26.8,2.71-26.8-2.71-26.8-2.71c0,0-13.9,11.9-8.12,38.5,5.78,26.6,34.91,34.75,34.91,34.75,0,0,29.13-8.15,34.91-34.75,5.78-26.6-8.12-38.5-8.12-38.5Z"/>
          <path class="cls-5" d="m97.62,112.37s5.67,6.04,9.18,7.92,8.65,4.11,12.11,5.28,9.29,4.73,11.49,11.13,1.63,8.96,1.63,8.96c0,0-13.81,10.86-30.72-4.33-14.41-13.2-4.67-29.3-3.69-28.96Z"/>
          <path class="cls-5" d="m168.09,112.37s-5.67,6.04-9.18,7.92-8.65,4.11-12.11,5.28-9.29,4.73-11.49,11.13-1.63,8.96-1.63,8.96c0,0,13.81,10.86,30.72-4.33,14.41-13.2,4.67-29.3,3.69-28.96Z"/>
          <path class="cls-10" d="m133.11,146.17s-7.97-6.08-21.3-.68c-5.32,2.02-5.86,5.46-13.03,7.73-7.17,2.27-11.58-.2-12.48-.58s-1.49,11.78,16.83,13.54,28.01-15.7,29.98-20.01Z"/>
          <path class="cls-11" d="m133.11,146.17s-4.16-11.35-18.9-12.98c-5.82-.8-7.95,2.57-15.58,1.01-7.63-1.55-10.48-6.61-11.13-7.52s-6.96,11.7,8.94,23.7,32.82-.72,36.67-4.22Z"/>
          <path class="cls-10" d="m133.61,146.17s7.97-6.08,21.3-.68c5.32,2.02,5.86,5.46,13.03,7.73,7.17,2.27,11.58-.2,12.48-.58s1.49,11.78-16.83,13.54c-18.32,1.76-28.01-15.7-29.98-20.01Z"/>
          <path class="cls-11" d="m133.61,146.17s4.16-11.35,18.9-12.98c5.82-.8,7.95,2.57,15.58,1.01,7.63-1.55,10.48-6.61,11.13-7.52s6.96,11.7-8.94,23.7c-15.9,12-32.82-.72-36.67-4.22Z"/>
          <path class="cls-8" d="m106.94,140.85s9.6-4.77,15.04,4.57c0,0-9.51,5.37-15.04-4.57Z"/>
          <path class="cls-8" d="m158.02,140.85s-9.6-4.77-15.04,4.57c0,0,9.51,5.37,15.04-4.57Z"/>
          <polygon class="cls-12" points="133.93 154.28 127.96 168.74 140.1 168.74 133.93 154.28"/>
          <path class="cls-11" d="m113.74,168.19s8.15,10.84,20.19,10.84,19.2-11.49,19.2-11.49c0,0-2.62,20.75-19.2,20.75s-20.19-20.1-20.19-20.1Z"/>
        </g>
      </g>
    </g>
  </g>
</svg>