<?xml version="1.0" encoding="UTF-8"?>
<svg id="Layer_2" data-name="Layer 2" xmlns="http://www.w3.org/2000/svg" viewBox="0 0 269.76 269.76">
  <defs>
    <style>
      .cls-1 {
        fill: #ffa528;
      }

      .cls-2 {
        fill: #5ec900;
      }

      .cls-3 {
        opacity: .9;
      }

      .cls-3, .cls-4 {
        fill: #e7e9e7;
      }

      .cls-3, .cls-4, .cls-5 {
        fill-rule: evenodd;
      }

      .cls-5 {
        fill: #00ba0e;
      }
    </style>
  </defs>
  <g id="Sampaguita">
    <g>
      <rect class="cls-2" width="269.76" height="269.76"/>
      <g>
        <g>
          <path class="cls-5" d="m73.53,33.39c18.71,31.47-19.59,32.63,13.95,83.66,21.66,32.96,37.77,17.08,47.81,11.95,15.19-7.75,14.74-16.75,6.73-38.77-20.87-57.38-50.05-27.11-68.49-56.84Z"/>
          <path class="cls-5" d="m199.19,33.63c-19.71,30.86-37.95-2.83-68.46,50.06-19.71,34.17,1.72,41.42,10.82,48.08,13.75,10.09,21.59,5.64,37.66-11.42,41.87-44.44,1.72-56.89,19.99-86.73Z"/>
          <path class="cls-5" d="m253.25,163.13c-35.49-8.99-9.26-36.92-69.06-49.23-38.63-7.95-38.77,14.67-42.24,25.4-5.24,16.23,1.44,22.26,22.69,32.15,55.36,25.76,54.54-16.28,88.61-8.32Z"/>
          <path class="cls-5" d="m140.03,239.11c.36-36.61,33.69-17.71,31.54-78.73-1.39-39.42-23.4-34.21-34.65-35.05-17.01-1.27-21.3,6.65-25.89,29.63-11.97,59.87,28.69,49.16,29,84.14Z"/>
          <path class="cls-5" d="m28.19,163.72c35.32-9.66,26.24,27.56,84.35,8.81,37.54-12.11,26.51-31.87,24.24-42.91-3.43-16.71-12.22-18.66-35.58-16.8-60.86,4.86-39.45,41.03-73.01,50.9Z"/>
        </g>
        <g>
          <path class="cls-5" d="m73.53,33.39c18.71,31.47-19.59,32.63,13.95,83.66,21.66,32.96,37.77,17.08,47.81,11.95,15.19-7.75,14.74-16.75,6.73-38.77-20.87-57.38-50.05-27.11-68.49-56.84Z"/>
          <g>
            <path class="cls-3" d="m137.07,130.81l-.67-95.59s20.54,17.94,20.78,45.9c.24,27.96-20.12,49.69-20.12,49.69"/>
            <path class="cls-4" d="m137.62,130.11s-21.8-18.7-20.21-49.61c1.59-30.91,19.46-45.29,19.46-45.29l.75,94.9"/>
          </g>
          <g>
            <path class="cls-3" d="m138.92,131.34l-92.23-25.13s22.81-14.95,49.81-7.64c26.99,7.31,42.43,32.77,42.43,32.77"/>
            <path class="cls-4" d="m138.39,130.62s-23.88,15.95-53.22,6.09c-29.34-9.87-38.37-30.95-38.37-30.95l91.59,24.86"/>
          </g>
          <g>
            <path class="cls-3" d="m138.92,129.67l-66.81,68.37s-1.96-27.2,17.55-47.23c19.51-20.03,49.26-21.13,49.26-21.13"/>
            <path class="cls-4" d="m138.04,129.78s2.32,28.62-20.57,49.46c-22.89,20.84-45.7,18.47-45.7,18.47l66.27-67.93"/>
          </g>
          <g>
            <path class="cls-3" d="m136.41,129.1l67.97,67.22s-27.21,1.8-47.13-17.83c-19.91-19.63-20.84-49.39-20.84-49.39"/>
            <path class="cls-4" d="m136.51,129.98s28.64-2.15,49.34,20.86c20.7,23.01,18.2,45.81,18.2,45.81l-67.54-66.67"/>
          </g>
          <g>
            <path class="cls-3" d="m136.51,129.24l92.04-25.82s-11.9,24.54-38.81,32.14c-26.91,7.6-53.23-6.32-53.23-6.32"/>
            <path class="cls-4" d="m137.33,129.58s12.29-25.95,42.53-32.56c30.24-6.61,48.82,6.84,48.82,6.84l-91.35,25.72"/>
          </g>
          <circle class="cls-1" cx="122.66" cy="112.39" r="9.23"/>
          <circle class="cls-1" cx="151.7" cy="112.24" r="9.23"/>
          <circle class="cls-1" cx="137.33" cy="149.16" r="9.23"/>
          <circle class="cls-1" cx="113.43" cy="137.1" r="9.23"/>
          <circle class="cls-1" cx="160.93" cy="134.43" r="9.23"/>
        </g>
      </g>
    </g>
  </g>
</svg>