<?xml version="1.0" encoding="UTF-8"?>
<svg id="Layer_2" data-name="Layer 2" xmlns="http://www.w3.org/2000/svg" xmlns:xlink="http://www.w3.org/1999/xlink" viewBox="0 0 269.76 269.76">
  <defs>
    <style>
      .cls-1 {
        fill: none;
      }

      .cls-2 {
        clip-path: url(#clippath);
      }

      .cls-3 {
        fill: #00ba0e;
      }

      .cls-4 {
        fill: #00ab34;
      }

      .cls-5 {
        fill: #007622;
      }

      .cls-6 {
        fill: #007f08;
      }
    </style>
    <clipPath id="clippath">
      <rect class="cls-1" width="269.76" height="269.76"/>
    </clipPath>
  </defs>
  <g id="Rice_Terraces" data-name="Rice Terraces">
    <g class="cls-2">
      <rect class="cls-6" width="269.76" height="269.76"/>
      <path class="cls-3" d="m285.03,34.27c-5.2,2.99-10.31,6.67-15.27,10.82-24.82,20.73-45.87,52.91-55.87,65.8-12,15.47,18.22,10.27,24.15,10.12,5.93-.14,18.07-4.34,12.87,14.32-14.97,52.06-69.53,119.29-82.58,134.88-1.81,2.16-2.82,3.33-2.82,3.33h-100.63l4.34-3.33,6.84-5.25c68.63-58.32,99.47-102.45,118.36-126.74,18.9-24.29-56.28-24.68-44.33-46.65,11.47-21.11,111.71-73.48,119.67-77.62.33-.17.5-.26.5-.26l14.77,20.58Z"/>
      <path class="cls-6" d="m195.87,96.68s1.61,31.98,1.59,33.5c-.02,1.52.12,2.68-1.78,6.25s-7.98,10.56-7.98,10.56l-14.48-22.18,22.66-28.13Z"/>
      <path class="cls-4" d="m144.89-1.71S50.04,41.06,11.87,95.04c-16.77,22.94,64.58,20.63,73.64,22.36s21.4,3.47,2.89,16.96c-18.51,13.49-91.23,40.14-91.23,40.14v82.84S175.15,125.21,183.54,116.24s29.78-30.65-16.19-28.92-78.65,4.63-63.61-13.59S160.5,21.5,243.2-4.28h-89.06s-5.45.8-9.25,2.58Z"/>
      <path class="cls-5" d="m269.76,45.09v225.12h-101.43c13.05-15.59,67.61-82.82,82.58-134.88,5.2-18.66-6.94-14.46-12.87-14.32-5.93.15-36.15,5.35-24.15-10.12,10-12.89,31.05-45.07,55.87-65.8Z"/>
      <path class="cls-1" d="m269.76.45v44.64c-24.82,20.73-45.87,52.91-55.87,65.8-12,15.47,18.22,10.27,24.15,10.12,5.93-.14,18.07-4.34,12.87,14.32-14.97,52.06-69.53,119.29-82.58,134.88H0V.45h269.76Z"/>
    </g>
  </g>
</svg>