<?xml version="1.0" encoding="UTF-8"?>
<svg id="Layer_2" data-name="Layer 2" xmlns="http://www.w3.org/2000/svg" viewBox="0 0 269.76 269.77">
  <defs>
    <style>
      .cls-1 {
        fill: #00ab34;
      }

      .cls-2 {
        fill: #ffbf00;
      }

      .cls-3 {
        fill: #5ec900;
      }
    </style>
  </defs>
  <g id="Windmill">
    <g>
      <rect class="cls-1" width="269.76" height="269.76"/>
      <g>
        <g>
          <path class="cls-2" d="m73.91,40.66s-7.37,10.51-7.28,24.1,6.07,15.04,7.28,15.04,8.36-.39,8.77-17.25c.34-13.88-8.77-21.88-8.77-21.88Z"/>
          <path class="cls-2" d="m115.84,102.87s-5.54-11.82-17.53-18.21c-11.99-6.39-16.26-1.56-16.86-.45-.6,1.11-3.85,7.91,10.77,16.33,12.03,6.93,23.63,2.34,23.63,2.34Z"/>
          <path class="cls-2" d="m33,105.61s4.78-12.36,16.48-19.67,16.36-2.71,17.05-1.62c.69,1.09,4.45,7.74-9.76,17.29-11.7,7.85-23.76,4-23.76,4Z"/>
        </g>
        <polygon class="cls-3" points="74.84 86.31 60.03 269.77 94.88 269.77 74.84 86.31"/>
        <g>
          <path class="cls-2" d="m136.46,81.12s-8.19,11.67-8.08,26.76c.11,15.09,6.74,16.7,8.08,16.7s9.28-.43,9.74-19.16c.37-15.41-9.74-24.29-9.74-24.29Z"/>
          <path class="cls-2" d="m183.01,150.19s-6.15-13.12-19.47-20.22c-13.32-7.1-18.05-1.74-18.72-.5s-4.27,8.78,11.96,18.13c13.36,7.7,26.23,2.59,26.23,2.59Z"/>
          <path class="cls-2" d="m91.03,153.23s5.31-13.72,18.3-21.84,18.16-3.01,18.93-1.8,4.94,8.6-10.84,19.2c-12.99,8.72-26.38,4.44-26.38,4.44Z"/>
        </g>
        <polygon class="cls-3" points="136.38 132.32 119.9 269.77 158.69 269.77 136.38 132.32"/>
        <g>
          <path class="cls-2" d="m205.12,134.88s-6.29,8.97-6.21,20.57c.08,11.6,5.18,12.83,6.21,12.83s7.14-.33,7.49-14.73c.29-11.85-7.49-18.67-7.49-18.67Z"/>
          <path class="cls-2" d="m240.9,187.97s-4.73-10.09-14.97-15.54c-10.24-5.46-13.88-1.33-14.39-.39s-3.28,6.75,9.19,13.94c10.27,5.92,20.16,1.99,20.16,1.99Z"/>
          <path class="cls-2" d="m170.2,190.31s4.08-10.55,14.07-16.79c9.98-6.24,13.96-2.31,14.55-1.38s3.8,6.61-8.33,14.76c-9.98,6.7-20.28,3.41-20.28,3.41Z"/>
        </g>
        <polygon class="cls-3" points="205.09 169.91 193.11 269.77 221.3 269.77 205.09 169.91"/>
      </g>
    </g>
  </g>
</svg>