<?xml version="1.0" encoding="UTF-8"?>
<svg id="Layer_2" data-name="Layer 2" xmlns="http://www.w3.org/2000/svg" xmlns:xlink="http://www.w3.org/1999/xlink" viewBox="0 0 269.76 269.76">
  <defs>
    <style>
      .cls-1 {
        fill: none;
      }

      .cls-2 {
        clip-path: url(#clippath);
      }

      .cls-3 {
        fill: #0056ab;
      }

      .cls-4 {
        fill: #00cdbd;
      }

      .cls-5 {
        fill: #00ab9c;
      }

      .cls-6 {
        fill: #0074c1;
      }

      .cls-7 {
        fill: #ff8d00;
      }
    </style>
    <clipPath id="clippath">
      <rect class="cls-1" width="269.76" height="269.76"/>
    </clipPath>
  </defs>
  <g id="Sardine_Run" data-name="Sardine Run">
    <g class="cls-2">
      <rect class="cls-3" width="269.76" height="269.76"/>
      <g>
        <polygon class="cls-6" points="0 0 0 269.76 269.76 269.76 0 0"/>
        <polygon class="cls-3" points="0 116.06 0 269.76 153.7 269.76 0 116.06"/>
        <polygon class="cls-5" points="269.76 269.76 269.76 0 0 0 269.76 269.76"/>
        <polygon class="cls-4" points="269.76 153.7 269.76 0 116.06 0 269.76 153.7"/>
      </g>
      <g>
        <path class="cls-7" d="m82.74,59.74h-19.23c1.01-4.94,1.8-17.87-12.33-32-15.04-15.04-34.41-10.89-34.41-10.89h0s-6.26,16.11,11.76,34.13c12.18,12.18,27.2,11.77,32.47,11.18v19.32l21.73-21.73Z"/>
        <path class="cls-7" d="m178.74,105.82h-19.23c1.01-4.94,1.8-17.87-12.33-32-15.04-15.04-34.41-10.89-34.41-10.89h0s-6.26,16.11,11.76,34.13c12.18,12.18,27.2,11.77,32.47,11.18v19.32l21.73-21.73Z"/>
        <path class="cls-7" d="m260.08,149.19h-19.23c1.01-4.94,1.8-17.87-12.33-32-15.04-15.04-34.41-10.89-34.41-10.89h0s-6.26,16.11,11.76,34.13c12.18,12.18,27.2,11.77,32.47,11.18v19.32l21.73-21.73Z"/>
        <path class="cls-7" d="m213.82,190.06h-19.23c1.01-4.94,1.8-17.87-12.33-32-15.04-15.04-34.41-10.89-34.41-10.89h0s-6.26,16.11,11.76,34.13c12.18,12.18,27.2,11.77,32.47,11.18v19.32l21.73-21.73Z"/>
        <path class="cls-7" d="m169.63,225.77h-19.23c1.01-4.94,1.8-17.87-12.33-32-15.04-15.04-34.41-10.89-34.41-10.89h0s-6.26,16.11,11.76,34.13c12.18,12.18,27.2,11.77,32.47,11.18v19.32l21.73-21.73Z"/>
        <path class="cls-7" d="m132.08,147.07h-19.23c1.01-4.94,1.8-17.87-12.33-32-15.04-15.04-34.41-10.89-34.41-10.89h0s-6.26,16.11,11.76,34.13c12.18,12.18,27.2,11.77,32.47,11.18v19.32l21.73-21.73Z"/>
      </g>
    </g>
  </g>
</svg>